# xmcd
#
# Track frame offsets:
#	150
#	14900
#	32818
#	55563
#	78003
#	93835
#	123058
#	141325
#	156455
#	179243
#	189960
#	210513
#	227723
#	237188
#	250498
#	276528
#
# Disc length: 3918 seconds
# Revision: 8
# Processed by: cddbd v1.5.2PL0 Copyright (c) Steve Scherf et al.
# Submitted via: dBpowerAMP V12.0
#
DISCID=df0f4c10
DTITLE='Luther 'Guitar Jr' Johnson and The Magic Rockers - Slammin' On The West Side [dBP-LITE02-1-FLAC@]
DYEAR=1996
DGENRE=Blues
TTITLE0=A Pretty Girl
TTITLE1=She's Lookin' Good
TTITLE2=Hey Little Girl
TTITLE3=I Ain't Doin' Too Bad
TTITLE4=It's Good To Me
TTITLE5=Sittin' On The Back Seat Of A Greyhound Bus
TTITLE6=Every Woman Needs To Be Loved
TTITLE7=Stranded
TTITLE8=Early In The Morning Blues
TTITLE9=Another Man
TTITLE10=Hard Times
TTITLE11=The Woman I Love
TTITLE12=Get Up And Go
TTITLE13=Why Am I Treated So Bad
TTITLE14=Waiting At The Station
TTITLE15=Meet Me With Your Black Drawers On
EXTD=
EXTT0=
EXTT1=
EXTT2=
EXTT3=
EXTT4=
EXTT5=
EXTT6=
EXTT7=
EXTT8=
EXTT9=
EXTT10=
EXTT11=
EXTT12=
EXTT13=
EXTT14=
EXTT15=
PLAYORDER=
